<?xml version="1.0" encoding="UTF-8"?>
<svg width="34px" height="16px" viewBox="0 0 34 16" version="1.1" xmlns="http://www.w3.org/2000/svg">
    <!-- Generator: Sketch 53.2 (72643) - https://sketchapp.com -->
    <title>Rectangle Copy@2x (1)</title>
    <desc>Created with Sketch.</desc>
    <g id="Page-1" stroke="none" stroke-width="1" fill="none" fill-rule="evenodd">
        <g id="Artboard" transform="translate(-157.000000, -56.000000)">
            <g id="Rectangle-Copy@2x-(1)" transform="translate(157.000000, 56.000000)">
                <g id="path-1-link" fill="#ffffff" fill-rule="nonzero">
                    <path d="M9.4041995,10.823254 L14.5598426,1.54356185 C15.364513,0.0952277806 17.190934,-0.426564724 18.6392681,0.378105668 C19.1321636,0.651950255 19.5379058,1.05916039 19.8099687,1.55304163 L24.8992149,10.7916547 C26.6577059,13.9838795 30.013637,15.9666385 33.6581657,15.9666385 L0.6627302,15.9666385 C4.2943252,15.9666385 7.6404735,13.9978016 9.4041995,10.823254 Z" id="path-1"></path>
                </g>
                <g id="path-1-link" fill="#FFFFFF">
                    <path d="M9.4041995,10.823254 L14.5598426,1.54356185 C15.364513,0.0952277806 17.190934,-0.426564724 18.6392681,0.378105668 C19.1321636,0.651950255 19.5379058,1.05916039 19.8099687,1.55304163 L24.8992149,10.7916547 C26.6577059,13.9838795 30.013637,15.9666385 33.6581657,15.9666385 L0.6627302,15.9666385 C4.2943252,15.9666385 7.6404735,13.9978016 9.4041995,10.823254 Z" id="path-1"></path>
                </g>
            </g>
        </g>
    </g>
</svg>
